<?xml version="1.0"?>
<svg xmlns="http://www.w3.org/2000/svg" xmlns:xlink="http://www.w3.org/1999/xlink" version="1.1" viewBox="0 0 192 192" width="48px" height="48px"><g transform="translate(-26.88,-26.88) scale(1.28,1.28)"><g fill="none" fill-rule="nonzero" stroke="none" stroke-width="1" stroke-linecap="butt" stroke-linejoin="miter" stroke-miterlimit="10" stroke-dasharray="" stroke-dashoffset="0" font-family="none" font-weight="none" font-size="none" text-anchor="none" style="mix-blend-mode: normal"><path d="M0,192v-192h192v192z" fill="none"/><g id="Layer_1"><g id="surface1"><path d="M36,168h92l40,-40v-92c0,-6.8 -5.2,-12 -12,-12h-120c-6.8,0 -12,5.2 -12,12v120c0,6.8 5.2,12 12,12z" fill="#ffc107"/><path d="M128,168v-40h40z" fill="#ffecb3"/><path d="M112,144h-32v-31.6c-12.4,-6 -20,-18.4 -20,-32.4c0,-20 16,-36 36,-36c20,0 36,16 36,36c0,14 -7.6,26 -20,32.4zM88,136h16v-29.2l2.4,-1.2c10.8,-4.4 17.6,-14.4 17.6,-26c0,-15.6 -12.4,-28 -28,-28c-15.6,0 -28,12.4 -28,28c0,11.6 6.8,21.6 17.6,26l2.4,1.2z" fill="#ffffff"/><path d="M88,140h16v12h-16z" fill="#ffffff"/><rect x="21" y="30" transform="scale(4,4)" width="6" height="2" fill="#ffffff"/></g></g></g></g></svg>
